<svg id="레이어_1" data-name="레이어 1" xmlns="http://www.w3.org/2000/svg" viewBox="0 0 512 512"><rect width="512" height="512" rx="256" style="fill:#41ad7b"/><path d="M109.58,395a1.06,1.06,0,0,1-1-1V334.12a1.06,1.06,0,0,1,1-1h15.23a1.06,1.06,0,0,1,1,1v59.94a1.05,1.05,0,0,1-1,1Z" transform="translate(0 -1.96)" style="fill:#fff"/><path d="M387.19,395a1.05,1.05,0,0,1-1-1V334.12a1.06,1.06,0,0,1,1-1h15.23a1.06,1.06,0,0,1,1,1v59.94a1.06,1.06,0,0,1-1,1Z" transform="translate(0 -1.96)" style="fill:#fff"/><path d="M395.05,247.15c-.49-19.66-13.76-22.11-27.51-24.57-18.18-3.44-51.6,11.79-76.65-51.1-19.17-47.66-68.79-50.61-95.82-50.61-29.48,0-51.59,10.32-52.57,10.32-2,1.47-3.44,2.95-3.93,4.91a6.77,6.77,0,0,0,2,5.9L291.87,293.33a4.21,4.21,0,0,0,2.95,1.48l92.37,23.09h1.47a6.57,6.57,0,0,0,3.94-1.47,6.07,6.07,0,0,0,2.45-4.92C395.05,312,396,282,395.05,247.15Z" transform="translate(0 -1.96)" style="fill:#fff"/><path d="M402.91,247.15c-.49-19.66-13.75-22.11-27.51-24.57-18.18-3.44-51.59,11.79-76.65-51.1-18.67-47.66-68.79-50.61-95.82-50.61-29.48,0-51.59,10.32-52.57,10.32-2,1-3.44,2.45-3.44,4.42a5.82,5.82,0,0,0,2,5.4L300.22,292.35a4.27,4.27,0,0,0,2.95,1.48l92.37,23.09H397a6.52,6.52,0,0,0,3.93-1.48,6,6,0,0,0,2.46-4.91C402.91,312,403.9,282,402.91,247.15Z" transform="translate(0 -1.96)" style="fill:#fff"/><path d="M402.91,247.15c-.49-19.66-13.75-22.11-27.51-24.57-18.18-3.44-51.59,11.79-76.65-51.1a72.74,72.74,0,0,0-18.18-27V274.17l19.16,19.16a4.23,4.23,0,0,0,2.95,1.48l92.37,23.09h1.48a6.57,6.57,0,0,0,3.93-1.47,6.07,6.07,0,0,0,2.45-4.92C402.91,312,403.9,282,402.91,247.15Z" transform="translate(0 -1.96)" style="fill:#fff"/><path d="M172,277.12a4.23,4.23,0,0,1-3.93,3.93h0a4.23,4.23,0,0,1-3.93-3.93V154.77a4.23,4.23,0,0,1,3.93-3.93h0a4.23,4.23,0,0,1,3.93,3.93Z" transform="translate(0 -1.96)" style="fill:#fff"/><path d="M168.05,150.84a4.23,4.23,0,0,1,3.93,3.93V277.12a4.23,4.23,0,0,1-3.93,3.93h0a4.23,4.23,0,0,1-3.93-3.93" transform="translate(0 -1.96)" style="fill:#fff"/><path d="M403.41,344.93a3.37,3.37,0,0,1-3.44,3.44H138.57a3.36,3.36,0,0,1-3.44-3.44V278.59a3.36,3.36,0,0,1,3.44-3.44H400a3.37,3.37,0,0,1,3.44,3.44v66.34Z" transform="translate(0 -1.96)" style="fill:#fff"/><path d="M135.13,278.59a3.36,3.36,0,0,1,3.44-3.44H400a3.37,3.37,0,0,1,3.44,3.44v65.84a3.36,3.36,0,0,1-3.44,3.44" transform="translate(0 -1.96)" style="fill:#fff"/><path d="M229,346.4a1.31,1.31,0,0,1-1.48,1.47H110.07c-1,.5-1.48-.49-1.48-1.47V316.92a1.31,1.31,0,0,1,1.48-1.48H227.5a1.31,1.31,0,0,1,1.48,1.48V346.4Z" transform="translate(0 -1.96)" style="fill:#fff"/><path d="M131.69,313v-4.42H113.51a4.4,4.4,0,0,0-4.42,4.42Z" transform="translate(0 -1.96)" style="fill:#fff"/></svg>