<svg id="Capa_1" enable-background="new 0 0 512 512" height="512" viewBox="0 0 512 512" width="512" xmlns="http://www.w3.org/2000/svg">
<g>
<path id="1" d="m382.957 394.072h-345.384c-12.43 0-22.544-10.113-22.544-22.544v-25.811h80.283c4.151 0 7.515-3.365 7.515-7.515s-3.364-7.515-7.515-7.515h-80.283v-263.007c0-12.431 10.114-22.544 22.544-22.544h286.08c4.151 0 7.515-3.365 7.515-7.515s-3.364-7.515-7.515-7.515h-286.08c-20.718.001-37.573 16.856-37.573 37.574v303.848c0 20.718 16.855 37.573 37.573 37.573h165.231l-7.574 57.761h-26.702c-4.151 0-7.515 3.365-7.515 7.515s3.364 7.515 7.515 7.515h33.29c.005 0 .01.001.015.001.007 0 .014-.001.021-.001h108.29c.007 0 .014.001.021.001.005 0 .01-.001.015-.001h33.29c4.151 0 7.515-3.365 7.515-7.515s-3.364-7.515-7.515-7.515h-26.7l-7.574-57.761h73.761c4.151 0 7.515-3.365 7.515-7.515s-3.364-7.514-7.515-7.514zm-81.345 72.79h-91.223l7.574-57.761h76.075z"/>
<path id="2" d="m474.427 30.107h-120.715c-4.151 0-7.515 3.365-7.515 7.515s3.364 7.515 7.515 7.515h120.714c12.43 0 22.544 10.113 22.544 22.544v263.007h-371.6c-4.151 0-7.515 3.364-7.515 7.515 0 4.15 3.364 7.515 7.515 7.515h371.6v25.811c0 12.431-10.114 22.544-22.544 22.544h-61.411c-4.151 0-7.515 3.365-7.515 7.515s3.364 7.515 7.515 7.515h61.411c20.718 0 37.573-16.855 37.573-37.573v-303.85c.001-20.718-16.854-37.573-37.572-37.573z"/>
<path id="3" d="m227.158 290.443h44.999c4.151 0 7.515-3.364 7.515-7.515v-134.331h9.895c6.387.213 10.003-8.158 5.474-12.663l-39.91-42.429c-2.818-3.127-8.129-3.127-10.947 0l-39.91 42.429c-4.531 4.507-.912 12.876 5.474 12.663h9.896v134.331c-.001 4.151 3.363 7.515 7.514 7.515zm22.499-180.822 22.524 23.947h-.024c-4.151 0-7.515 3.365-7.515 7.515v134.331h-29.97v-134.331c0-4.15-3.364-7.515-7.515-7.515h-.025z"/>
<path id="4" d="m75.363 200.165c-9.668 0-17.534 7.866-17.534 17.534v65.229c0 4.15 3.364 7.515 7.515 7.515h44.998c4.151 0 7.515-3.364 7.515-7.515v-65.228c0-9.668-7.866-17.534-17.534-17.534h-24.96zm27.464 17.535v57.714h-29.969v-57.714c0-1.381 1.123-2.505 2.505-2.505h24.959c1.381 0 2.505 1.123 2.505 2.505z"/>
<path id="5" d="m154.313 158.489c-9.668 0-17.534 7.866-17.534 17.534v106.905c0 4.15 3.364 7.515 7.515 7.515h44.999c4.151 0 7.515-3.364 7.515-7.515v-106.905c0-9.668-7.866-17.534-17.534-17.534zm27.465 17.534v99.39h-29.97v-99.39c0-1.381 1.123-2.505 2.505-2.505h24.96c1.382.001 2.505 1.124 2.505 2.505z"/>
<path id="6" d="m457.289 169.697h-118.606c-4.151 0-7.515 3.364-7.515 7.515 0 4.15 3.364 7.515 7.515 7.515h118.606c4.151 0 7.515-3.365 7.515-7.515-.001-4.15-3.365-7.515-7.515-7.515z"/>
<path id="7" d="m457.289 214.891h-118.606c-4.151 0-7.515 3.365-7.515 7.515s3.364 7.515 7.515 7.515h118.606c4.151 0 7.515-3.365 7.515-7.515-.001-4.151-3.365-7.515-7.515-7.515z"/>
<path id="8" d="m457.289 260.084h-118.606c-4.151 0-7.515 3.365-7.515 7.515s3.364 7.515 7.515 7.515h118.606c4.151 0 7.515-3.365 7.515-7.515-.001-4.15-3.365-7.515-7.515-7.515z"/>
<path id="9" d="m338.683 139.533h118.606c4.151 0 7.515-3.365 7.515-7.515s-3.364-7.515-7.515-7.515h-118.606c-4.151 0-7.515 3.365-7.515 7.515 0 4.151 3.364 7.515 7.515 7.515z"/>
</g>
</svg>