<svg id="Layer_1" enable-background="new 0 0 510 510" height="512" viewBox="0 0 510 510" width="512" xmlns="http://www.w3.org/2000/svg"><g><path d="m450.037 257.311c0 140.833-51.133 191.972-191.966 191.972s-258.071-53.441-258.071-194.274 114.167-255 255-255c3.795 0 7.571.083 11.326.247 135.577 5.926 183.711 120.018 183.711 257.055z" fill="#fec502"/><path d="m460.968 104.647-90.824-77.207c-31.42-15.927-66.583-25.54-103.819-27.167h-.245c0 67.935-55.081 123.006-123.015 123.006-13.56 0-22.414 0-22.018 0-14.824 0-26.842 12.017-26.842 26.842v95.982c0 23.432-33.12 28.119-39.69 5.627-.24-.821-.475-1.643-.707-2.466-8.554-30.418-53.449-24.333-53.793 6.949.634 138.11 112.131 251.326 250.496 253.74 77.382 1.336 148.534-31.914 197.099-87.855h.021c38.851-44.752 62.369-103.173 62.369-167.089 0-56.23-18.201-108.206-49.032-150.362z" fill="#ffa50a"/><g><path d="m419.914 150.47h-299.519v272.637h326.361v-245.795c0-14.825-12.017-26.842-26.842-26.842z" fill="#8757f3"/><path d="m151.581 150.47h-61.926c-14.824 0-26.842 12.018-26.842 26.842v245.795h61.925v-245.795c.001-14.825 12.018-26.842 26.843-26.842z" fill="#6a2bc2"/><path d="m128.523 172.438h296.216v215.218h-296.216z" fill="#b6fff6"/><path d="m148.201 387.656c.532-10.604 9.273-19.045 20.009-19.045h100.182c8.198 0 14.844-6.646 14.844-14.844 0-8.198-6.646-14.844-14.844-14.844h-106.517c-7.58 0-13.725-6.145-13.725-13.725s6.145-13.725 13.725-13.725h25.501c8.198 0 14.844-6.646 14.844-14.844 0-8.198-6.646-14.844-14.844-14.844h-23.656c-8.599 0-15.57-6.971-15.57-15.57 0-8.599 6.971-15.57 15.57-15.57h48.437c8.198 0 14.844-6.646 14.844-14.844s-6.646-14.844-14.844-14.844h-44.968c-10.515 0-19.039-8.524-19.039-19.039v-7.304c0-12.247-9.928-22.176-22.176-22.176h-39.888v215.218z" fill="#97f4ec"/><g><g><path d="m148.653 235.742h34.241v150.467h-34.241z" fill="#8757f3"/><path d="m148.653 235.742h12.878v150.467h-12.878z" fill="#6a2bc2"/><path d="m159.001 235.742h23.893v150.467h-23.893z" fill="#8757f3"/><path d="m148.653 235.742h12.878v150.467h-12.878z" fill="#6a2bc2"/></g><g><path d="m340.038 278.419h24.036v107.79h-24.036z" fill="#fec502"/><path d="m329.833 278.419h13.275v107.79h-13.275z" fill="#ffa50a"/></g><g><path d="m249.758 316.081h23.017v70.127h-23.017z" fill="#fb3d80"/><path d="m238.535 316.081h13.278v70.127h-13.278z" fill="#e21e69"/><path d="m284.538 316.081h34.241v70.127h-34.241z" fill="#8757f3"/><path d="m296.065 316.081c2.922 23.409 1.891 46.699 1.055 70.127h21.659v-70.127z" fill="#8757f3"/><path d="m284.538 316.081h13.278v70.127h-13.278z" fill="#6a2bc2"/></g><g><path d="m204.379 271.958h23.809v114.251h-23.809z" fill="#00b7f0"/><path d="m193.948 271.958h13.273v114.251h-13.273z" fill="#0091c8"/></g></g><path d="m165.097 385.483h259.642v15.657h-259.642z" fill="#00b7f0"/><path d="m86.086 385.483h83.508v15.657h-83.508z" fill="#0091c8"/><path d="m234.689 316.081h226.275v13.592h-226.275z" fill="#97f4ec"/><path d="m460.964 104.65c-23.671-32.361-54.792-58.921-90.831-77.187h-79.285v291.374h170.117v-214.187z" fill="#fff"/><g><path d="m344.296 134.211h80.443v12.812h-80.443z" fill="#f5f0f0"/></g><g><path d="m344.296 162.18h80.443v12.812h-80.443z" fill="#f5f0f0"/></g><g><path d="m344.296 190.149h80.443v12.812h-80.443z" fill="#f5f0f0"/></g><g fill="#f5f0f0"><path d="m424.739 230.93v-12.812h-131.721v-190.655h-58.329v291.374h58.329v-31.968h131.721v-12.812h-131.721v-15.157h131.721v-12.812h-131.721v-15.158z"/><path d="m263.853 68.043h160.885v31.155h-160.885z"/><path d="m263.853 111.125h64.12v92.02h-64.12z"/></g><path d="m299.547 64.84h125.192v31.155h-125.192z" fill="#00b7f0"/><path d="m263.853 64.84h39.611v31.155h-39.611z" fill="#0091c8"/><path d="m281.591 107.922h46.383v92.02h-46.383z" fill="#fb3d80"/><g><path d="m304.782 212.78h119.956v12.812h-119.956z" fill="#b6fff6"/></g><g><path d="m304.782 240.75h119.956v12.812h-119.956z" fill="#b6fff6"/></g><g><path d="m304.782 268.719h119.956v12.812h-119.956z" fill="#b6fff6"/></g><g><path d="m263.853 212.78h46.384v12.812h-46.384z" fill="#97f4ec"/></g><g><path d="m263.853 240.75h46.384v12.812h-46.384z" fill="#97f4ec"/></g><g><path d="m263.853 268.719h46.384v12.812h-46.384z" fill="#97f4ec"/></g><g><path d="m369.161 128.873h55.577v12.812h-55.577z" fill="#b6fff6"/></g><g><path d="m369.161 156.842h55.577v12.812h-55.577z" fill="#b6fff6"/></g><g><path d="m369.161 184.811h55.577v12.812h-55.577z" fill="#b6fff6"/></g><g><path d="m344.296 128.873h28.163v12.812h-28.163z" fill="#97f4ec"/></g><g><path d="m344.296 156.842h28.163v12.812h-28.163z" fill="#97f4ec"/></g><g><path d="m344.296 184.811h28.163v12.812h-28.163z" fill="#97f4ec"/></g><path d="m312.846 123.062c0-3.307-2.681-5.988-5.988-5.988h-16.541c-2.468 0-4.469-2.001-4.469-4.469 0-2.586-2.097-4.683-4.683-4.683h-17.312v92.02h17.312c2.586 0 4.683-2.097 4.683-4.683v-.641c0-2.468 2.001-4.469 4.469-4.469h15.738c3.307 0 5.988-2.681 5.988-5.988 0-3.307-2.681-5.988-5.988-5.988h-15.738c-2.468 0-4.469-2.001-4.469-4.469 0-2.468 2.001-4.469 4.469-4.469h8.965c3.307 0 5.988-2.681 5.988-5.988 0-3.307-2.681-5.988-5.988-5.988-7.419 0-13.434-6.015-13.434-13.434v-1.342c0-7.419 6.015-13.434 13.434-13.434h7.576c3.307.001 5.988-2.68 5.988-5.987z" fill="#e21e69"/><path d="m439.851 449.289h-370.133c-19.112 0-34.605-15.493-34.605-34.605h439.344c0 19.111-15.494 34.605-34.606 34.605z" fill="#6a2bc2"/><path d="m458.965 414.683h-408.36c0-7.969 6.46-14.428 14.428-14.428h379.504c7.968 0 14.428 6.46 14.428 14.428z" fill="#5c2481"/><path d="m295.389 427.868h-79.468c-7.282 0-13.185-5.903-13.185-13.185h105.838c0 7.282-5.903 13.185-13.185 13.185z" fill="#5c2481"/></g></g></svg>