<svg id="Layer_1" enable-background="new 0 0 512 512" height="512" viewBox="0 0 512 512" width="512" xmlns="http://www.w3.org/2000/svg"><g><g><g><g id="XMLID_475_"><g id="XMLID_476_"><g id="XMLID_477_"><g id="XMLID_478_"><g id="XMLID_479_"><g id="XMLID_480_"><g id="XMLID_481_"><g id="XMLID_482_"><g id="XMLID_483_"><g id="XMLID_484_"><g id="XMLID_485_"><g id="XMLID_486_"><g id="XMLID_487_"><g id="XMLID_488_"><g id="XMLID_489_"><circle cx="256" cy="256" fill="#f9764e" r="256"/></g></g></g></g></g></g></g></g></g></g></g></g></g></g></g></g></g><path d="m512 256c0-15.705-1.422-31.076-4.13-46l-129.136-129.137-282.659 348.274 64.449 64.449c29.505 11.869 61.724 18.414 95.476 18.414 141.385 0 256-114.615 256-256z" fill="#e84d2a"/><g><path d="m96.075 80.863h282.659v348.274h-282.659z" fill="#f7f4f0"/><path d="m237.404 80.86h141.33v348.28h-141.33z" fill="#e5e1dc"/><g><g><path d="m160.505 154.902h153.798v31.747h-153.798z" fill="#655665"/><path d="m237.404 154.9h76.9v31.75h-76.9z" fill="#4b3b4c"/><path d="m160.505 233.278h153.798v31.747h-153.798z" fill="#655665"/><path d="m237.404 233.28h76.9v31.74h-76.9z" fill="#4b3b4c"/><path d="m296.402 343.4h-135.897v-31.747h153.798z" fill="#655665"/><g><path d="m314.304 311.65-17.9 31.75h-59v-31.75z" fill="#4b3b4c"/></g></g></g><g><path d="m364.715 315.109-30.822 11.787-24.629 3.642 3.642-24.629 11.787-30.823 27.132 12.891z" fill="#ffd788"/><path d="m364.715 315.109-30.822 11.787-24.629 3.642 42.561-42.561z" fill="#f9c05d"/><path d="m367.772 171.093h56.594v145.285h-56.594z" fill="#5dcdf7" transform="matrix(.707 .707 -.707 .707 288.353 -208.675)"/><path d="m333.434 239.589h145.28v28.3h-145.28z" fill="#31a8dd" transform="matrix(.707 -.707 .707 .707 -60.484 361.456)"/><path d="m333.893 326.896-37.491 16.504 16.504-37.491z" fill="#655665"/><path d="m333.893 326.896-37.491 16.504 26.997-26.997z" fill="#4b3b4c"/><path d="m424.111 168.245h56.6v38.292h-56.6z" fill="#655665" transform="matrix(.707 .707 -.707 .707 265.013 -265.017)"/><g><path d="m443.266 183.247h38.3v28.3h-38.3z" fill="#4b3b4c" transform="matrix(.707 -.707 .707 .707 -4.142 384.794)"/></g></g></g></g></svg>