<?xml version="1.0" encoding="utf-8"?>
<!-- Generator: Adobe Illustrator 25.1.0, SVG Export Plug-In . SVG Version: 6.00 Build 0)  -->
<svg version="1.1" id="Capa_1" xmlns="http://www.w3.org/2000/svg" xmlns:xlink="http://www.w3.org/1999/xlink" x="0px" y="0px"
	 viewBox="0 0 512 512" style="enable-background:new 0 0 512 512;" xml:space="preserve">
<style type="text/css">
	.st0{fill:#231815;}
</style>
<g>
	<g>
		<path class="st0" d="M260,40c73.9,0,142.4,36.8,183.3,98.4l36.7,55.1V40h-40v32.3C392.1,26.3,328,0,260,0C116.3,0,0,116.3,0,260
			h40C40,138.7,138.7,40,260,40z M396,356v-80v-40v-80h-40v80h-40v-80h-40v120h80v80H396z M472,232v20c0,121.3-98.7,220-220,220
			c-73.9,0-142.4-36.8-183.3-98.4L32,318.5V472h40v-32.3c47.9,46,112,72.3,180,72.3c143.7,0,260-116.3,260-260v-20H472z M236,216
			c0-33.1-26.9-60-60-60s-60,26.9-60,60v20h40v-20c0-11,9-20,20-20s20,9,20,20c0,4.4-1.4,8.5-4,12L96,356h140v-40h-60l48-64
			C231.9,241.5,236,229.1,236,216z"/>
	</g>
</g>
</svg>
