<svg id="piano" data-name="piano" xmlns="http://www.w3.org/2000/svg" viewBox="0 0 60.05 22.73">
    <defs>
        <style>
            .cls-1 {
                font-size: 12px;
                font-family: Sansation-Regular, Sansation;
                letter-spacing: -0.05em;
            }
        </style>
    </defs>
    <path d="M.07,20.47A.08.08,0,0,1,0,20.4v-4a.07.07,0,0,1,.07-.06h1a.06.06,0,0,1,.06.06v4s0,.07-.06.07Z" />
    <path d="M18.49,20.47s-.06,0-.06-.07v-4a.06.06,0,0,1,.06-.06h1a.07.07,0,0,1,.07.06v4a.08.08,0,0,1-.07.07Z" />
    <path
        d="M19,10.65C19,9.34,18.1,9.18,17.19,9,16,8.79,13.76,9.8,12.1,5.63,10.83,2.46,7.53,2.27,5.74,2.27A10,10,0,0,0,2.25,3,.62.62,0,0,0,2,3.28a.45.45,0,0,0,.13.39l10.05,10a.26.26,0,0,0,.19.1l6.13,1.54h.1a.47.47,0,0,0,.26-.1.42.42,0,0,0,.17-.33S19.08,13,19,10.65Z" />
    <path
        d="M19.54,10.65c0-1.31-.92-1.47-1.83-1.63-1.21-.23-3.42.78-5.09-3.39C11.38,2.46,8.06,2.27,6.26,2.27A10,10,0,0,0,2.77,3c-.13.07-.23.16-.23.29a.4.4,0,0,0,.13.36L12.72,13.65a.32.32,0,0,0,.2.1l6.13,1.53h.1a.43.43,0,0,0,.26-.1.4.4,0,0,0,.16-.32C19.54,15,19.6,13,19.54,10.65Z" />
    <path
        d="M19.54,10.65c0-1.31-.92-1.47-1.83-1.63-1.21-.23-3.42.78-5.09-3.39a4.82,4.82,0,0,0-1.2-1.8v8.61l1.27,1.27a.26.26,0,0,0,.19.1L19,15.35h.09a.44.44,0,0,0,.26-.1.42.42,0,0,0,.17-.33S19.6,13,19.54,10.65Z" />
    <path d="M4.21,12.64A.28.28,0,0,1,4,12.9H4a.28.28,0,0,1-.26-.26V4.52A.28.28,0,0,1,4,4.26H4a.28.28,0,0,1,.26.26Z" />
    <path d="M4,4.26a.28.28,0,0,1,.26.26v8.12A.28.28,0,0,1,4,12.9H4a.28.28,0,0,1-.26-.26" />
    <path
        d="M19.57,17.14a.23.23,0,0,1-.23.23H2a.23.23,0,0,1-.23-.23v-4.4A.23.23,0,0,1,2,12.51H19.34a.23.23,0,0,1,.23.23v4.4Z" />
    <path d="M1.76,12.74A.23.23,0,0,1,2,12.51H19.34a.23.23,0,0,1,.23.23v4.37a.23.23,0,0,1-.23.23" />
    <path d="M8,17.24a.09.09,0,0,1-.1.1H.1c-.07,0-.1,0-.1-.1v-2a.09.09,0,0,1,.1-.1H7.89a.09.09,0,0,1,.1.1v2Z" />
    <path d="M1.53,15v-.29H.33A.29.29,0,0,0,0,15Z" /><text class="cls-1" transform="translate(23.7 10.19)">Forest<tspan
            x="0" y="10">Art Hall</tspan></text>
</svg>